<?xml version="1.0" standalone="no"?>
<!DOCTYPE svg PUBLIC "-//W3C//DTD SVG 20010904//EN"
 "http://www.w3.org/TR/2001/REC-SVG-20010904/DTD/svg10.dtd">
<svg version="1.0" xmlns="http://www.w3.org/2000/svg"
 width="200.000000pt" height="200.000000pt" viewBox="0 0 200.000000 200.000000"
 preserveAspectRatio="xMidYMid meet">

<g transform="translate(0.000000,200.000000) scale(0.100000,-0.100000)"
fill="#000000" stroke="none">
<path d="M795 1984 c-158 -35 -313 -123 -425 -240 -66 -68 -62 -69 26 -2 27
20 81 52 119 71 67 33 175 71 182 63 2 -2 -27 -21 -63 -42 -65 -38 -214 -167
-214 -185 0 -5 27 13 59 39 221 177 592 232 816 120 87 -44 171 -107 245 -184
l65 -68 -75 68 c-156 141 -306 205 -501 213 -189 9 -334 -29 -481 -126 -67
-44 -179 -151 -221 -211 l-18 -25 12 25 c6 14 27 46 46 73 51 69 25 57 -38
-18 -68 -83 -128 -181 -161 -266 -30 -75 -58 -200 -58 -258 0 -22 -5 -43 -12
-47 -16 -10 -4 197 16 294 26 120 84 248 153 340 14 18 23 36 20 38 -11 11
-139 -155 -178 -229 -85 -164 -116 -309 -106 -507 12 -237 91 -424 254 -600
114 -123 219 -187 428 -258 152 -52 241 -66 375 -59 220 12 398 90 563 246 67
63 60 72 -15 18 -41 -29 -105 -66 -143 -84 -74 -33 -194 -71 -161 -50 133 84
188 127 251 197 l30 34 -30 -23 c-196 -146 -351 -201 -564 -201 -186 0 -339
57 -464 172 l-52 49 50 -37 c75 -56 200 -110 294 -130 101 -20 281 -15 376 10
148 40 310 149 415 282 108 136 164 287 179 486 l8 103 2 -83 c3 -199 -58
-404 -165 -555 -68 -95 -28 -67 58 42 109 136 179 312 197 496 9 82 9 77 6
-65 -2 -105 -8 -176 -20 -220 -19 -73 -94 -238 -128 -284 -39 -52 -42 -62 -8
-31 49 45 124 151 164 230 125 250 125 601 0 850 -76 151 -230 316 -366 394
-42 23 -143 66 -224 94 l-148 50 -150 3 c-110 3 -169 -1 -220 -12z m440 -247
c239 -79 432 -282 497 -525 27 -101 29 -295 4 -397 -37 -151 -141 -313 -264
-411 -77 -61 -220 -129 -316 -150 -172 -37 -389 -3 -534 83 -249 148 -382 379
-382 666 0 137 20 227 75 342 75 155 191 272 350 351 123 61 190 74 355 70
113 -2 148 -7 215 -29z"/>
<path d="M650 1543 c-70 -5 -143 -39 -202 -97 -82 -80 -137 -262 -138 -456 0
-110 8 -147 57 -250 46 -99 100 -146 178 -155 65 -9 162 8 217 36 47 24 48 24
48 -6 0 -29 7 -30 78 -13 61 14 62 14 62 173 0 66 4 126 9 133 4 8 19 12 32
10 17 -2 23 2 22 12 -1 8 -4 45 -8 83 -6 60 -9 67 -28 68 -43 2 -193 9 -235
10 -23 1 -45 -1 -48 -4 -4 -3 -7 -38 -8 -78 l-1 -72 40 -11 c38 -12 40 -14 39
-51 -1 -32 -8 -45 -35 -67 -75 -63 -177 -7 -215 118 -20 68 -18 205 5 289 46
167 180 195 281 61 23 -31 47 -56 54 -56 32 1 100 29 106 44 7 21 -8 204 -19
231 -7 17 -19 21 -61 23 -29 1 -58 -3 -65 -8 -10 -8 -23 -4 -50 15 -21 14 -43
24 -49 23 -6 -1 -36 -3 -66 -5z"/>
<path d="M1056 1501 c-37 -8 -42 -24 -51 -185 -4 -69 -8 -129 -9 -133 0 -5 24
-9 55 -11 l57 -3 7 60 7 61 36 0 37 0 0 -183 c0 -100 -2 -221 -3 -268 l-2 -86
-46 -13 c-32 -9 -48 -20 -55 -37 -11 -29 -12 -140 -1 -146 4 -2 88 1 186 7
l179 11 18 90 c15 74 16 92 5 103 -9 10 -19 10 -40 2 -15 -5 -32 -10 -37 -10
-5 0 -9 101 -9 248 l0 249 25 11 c45 21 47 17 44 -65 -4 -87 -13 -81 83 -67
l46 6 4 67 c2 36 1 112 -1 169 -4 114 -2 112 -84 127 -33 7 -35 6 -41 -29 l-7
-36 -55 0 c-30 0 -62 5 -72 11 -11 7 -44 8 -102 2 l-85 -8 -15 30 c-16 32 -29
36 -74 26z"/>
<path d="M488 525 c-18 -40 0 -80 36 -80 21 0 30 5 32 18 4 28 14 34 14 8 0
-25 26 -39 42 -23 6 6 15 28 19 49 8 37 8 36 5 -9 -3 -42 -1 -48 15 -48 11 0
19 7 19 18 0 9 12 26 27 36 l26 19 -6 -36 c-5 -34 -4 -37 18 -37 22 0 24 3 18
31 -4 20 -1 34 7 39 7 4 11 14 8 21 -4 11 -38 15 -137 17 l-131 4 -12 -27z
m122 -20 c0 -13 -4 -27 -10 -30 -6 -4 -10 8 -10 30 0 22 4 34 10 30 6 -3 10
-17 10 -30z m-50 8 c0 -7 -9 -13 -21 -13 -15 0 -19 -5 -15 -15 3 -8 1 -15 -4
-15 -6 0 -10 13 -10 29 0 25 4 29 25 27 14 0 25 -7 25 -13z m120 7 c0 -5 -5
-10 -11 -10 -5 0 -7 5 -4 10 3 6 8 10 11 10 2 0 4 -4 4 -10z"/>
<path d="M789 548 c0 -2 -2 -14 -3 -28 -2 -14 -6 -37 -11 -52 -5 -22 -4 -28 8
-28 9 0 18 8 20 18 4 16 5 16 6 0 1 -16 41 -28 41 -12 0 25 -35 104 -46 104
-8 0 -14 -1 -15 -2z"/>
<path d="M883 532 c-3 -8 -2 -17 4 -21 17 -11 24 -43 12 -57 -9 -11 -8 -15 4
-20 24 -9 38 5 31 31 -4 16 0 30 10 40 15 15 16 14 16 -18 0 -42 23 -66 45
-47 8 7 15 23 15 36 0 13 4 24 9 24 15 0 22 -32 10 -46 -9 -11 -8 -15 4 -20
25 -9 37 4 30 36 -3 19 -1 30 6 30 6 0 11 -13 11 -29 0 -22 6 -32 22 -37 36
-11 61 42 42 90 -7 18 -39 21 -50 5 -4 -8 -9 -7 -14 2 -12 19 -200 20 -207 1z
m117 -32 c0 -16 -4 -30 -10 -30 -5 0 -10 14 -10 30 0 17 5 30 10 30 6 0 10
-13 10 -30z m140 -10 c0 -10 -5 -22 -10 -25 -13 -8 -24 20 -16 41 8 20 26 9
26 -16z"/>
<path d="M1165 484 c0 -52 1 -55 25 -52 34 3 51 18 45 37 -2 9 0 23 6 31 8 11
9 4 6 -27 l-5 -42 104 0 c57 -1 108 -2 115 -3 6 -2 16 5 22 14 9 14 7 22 -13
44 -25 26 -25 26 -2 20 18 -6 22 -3 22 13 0 21 -15 26 -44 15 -20 -8 -21 -53
-1 -60 8 -4 15 -10 15 -15 0 -5 -9 -4 -20 3 -17 11 -22 10 -31 -2 -8 -11 -9
-2 -6 33 4 43 3 47 -18 47 -21 0 -22 -3 -17 -45 2 -25 2 -45 -2 -45 -3 0 -11
20 -17 45 -8 33 -16 45 -30 45 -14 0 -19 -7 -19 -29 0 -37 -9 -61 -22 -61 -7
0 -9 17 -6 44 l5 44 -56 1 -56 0 0 -55z m45 26 c0 -5 -4 -10 -10 -10 -5 0 -10
5 -10 10 0 6 5 10 10 10 6 0 10 -4 10 -10z"/>
</g>
</svg>
